<svg width="104" height="25" viewBox="0 0 104 25" fill="none" xmlns="http://www.w3.org/2000/svg">
<path d="M0.44 20V0.559999H4.736V8.504L8 0.559999H12.2L8.6 9.344L12.368 20H8L5.192 11.408L4.736 12.176V20H0.44ZM18.4012 20.24C17.4092 20.24 16.5452 20.072 15.8092 19.736C15.0892 19.4 14.5292 18.896 14.1292 18.224C13.7452 17.552 13.5532 16.712 13.5532 15.704V10.424C13.5532 9.416 13.7452 8.576 14.1292 7.904C14.5292 7.232 15.0892 6.728 15.8092 6.392C16.5452 6.056 17.4092 5.888 18.4012 5.888C19.3932 5.888 20.2492 6.056 20.9692 6.392C21.7052 6.728 22.2732 7.232 22.6732 7.904C23.0732 8.576 23.2732 9.416 23.2732 10.424V15.704C23.2732 16.712 23.0732 17.552 22.6732 18.224C22.2732 18.896 21.7052 19.4 20.9692 19.736C20.2492 20.072 19.3932 20.24 18.4012 20.24ZM18.4252 17.648C18.6812 17.648 18.8812 17.584 19.0252 17.456C19.1692 17.312 19.2652 17.12 19.3132 16.88C19.3772 16.624 19.4092 16.32 19.4092 15.968V10.16C19.4092 9.808 19.3772 9.512 19.3132 9.272C19.2652 9.016 19.1692 8.824 19.0252 8.696C18.8812 8.552 18.6812 8.48 18.4252 8.48C18.1692 8.48 17.9692 8.552 17.8252 8.696C17.6812 8.824 17.5772 9.016 17.5132 9.272C17.4492 9.512 17.4172 9.808 17.4172 10.16V15.968C17.4172 16.32 17.4492 16.624 17.5132 16.88C17.5772 17.12 17.6812 17.312 17.8252 17.456C17.9692 17.584 18.1692 17.648 18.4252 17.648ZM29.7148 20.24C28.4988 20.24 27.4828 19.968 26.6668 19.424C25.8668 18.88 25.2108 17.992 24.6988 16.76L27.3628 15.584C27.6188 16.208 27.9148 16.704 28.2508 17.072C28.6028 17.424 28.9868 17.6 29.4028 17.6C29.7068 17.6 29.9308 17.536 30.0748 17.408C30.2348 17.28 30.3148 17.104 30.3148 16.88C30.3148 16.512 30.1708 16.176 29.8828 15.872C29.6108 15.568 29.1148 15.12 28.3948 14.528L27.3867 13.688C26.6508 13.064 26.0668 12.464 25.6348 11.888C25.2188 11.296 25.0107 10.568 25.0107 9.704C25.0107 8.952 25.2028 8.288 25.5868 7.712C25.9868 7.136 26.5148 6.688 27.1708 6.368C27.8268 6.048 28.5308 5.888 29.2828 5.888C30.4188 5.888 31.3708 6.2 32.1388 6.824C32.9068 7.448 33.4428 8.328 33.7468 9.464L31.2268 10.616C31.1308 10.312 30.9948 10.008 30.8188 9.704C30.6428 9.4 30.4268 9.144 30.1708 8.936C29.9308 8.728 29.6668 8.624 29.3788 8.624C29.1228 8.624 28.9148 8.696 28.7548 8.84C28.6108 8.984 28.5388 9.176 28.5388 9.416C28.5388 9.72 28.7068 10.048 29.0428 10.4C29.3948 10.752 29.8748 11.176 30.4828 11.672L31.4668 12.536C31.8668 12.872 32.2588 13.232 32.6428 13.616C33.0268 14 33.3388 14.424 33.5788 14.888C33.8348 15.352 33.9628 15.88 33.9628 16.472C33.9628 17.272 33.7628 17.96 33.3628 18.536C32.9628 19.096 32.4348 19.52 31.7788 19.808C31.1388 20.096 30.4508 20.24 29.7148 20.24ZM34.3906 24.008V21.392H43.2226V24.008H34.3906ZM44.5946 20L44.9306 0.559999H49.5386L51.6746 11.864L53.9786 0.559999H58.4186L58.7546 20H55.7066L55.3466 7.064L53.0906 20H50.3786L47.9786 6.968L47.6906 20H44.5946ZM64.205 20.24C63.501 20.24 62.909 20.072 62.429 19.736C61.949 19.4 61.589 18.976 61.349 18.464C61.109 17.936 60.989 17.4 60.989 16.856C60.989 15.992 61.157 15.264 61.493 14.672C61.845 14.08 62.301 13.584 62.861 13.184C63.421 12.784 64.037 12.448 64.709 12.176C65.381 11.888 66.045 11.632 66.701 11.408V10.016C66.701 9.776 66.677 9.568 66.629 9.392C66.581 9.2 66.501 9.056 66.389 8.96C66.277 8.848 66.109 8.792 65.885 8.792C65.661 8.792 65.485 8.84 65.357 8.936C65.245 9.032 65.165 9.168 65.117 9.344C65.069 9.504 65.037 9.688 65.021 9.896L64.925 10.904L61.277 10.76C61.357 9.096 61.797 7.872 62.597 7.088C63.413 6.288 64.629 5.888 66.245 5.888C67.653 5.888 68.701 6.28 69.389 7.064C70.093 7.832 70.445 8.832 70.445 10.064V16.544C70.445 17.12 70.453 17.624 70.469 18.056C70.501 18.488 70.533 18.864 70.565 19.184C70.613 19.504 70.653 19.776 70.685 20H67.181C67.133 19.632 67.077 19.232 67.013 18.8C66.949 18.368 66.901 18.112 66.869 18.032C66.709 18.608 66.405 19.12 65.957 19.568C65.525 20.016 64.941 20.24 64.205 20.24ZM65.597 17.6C65.757 17.6 65.901 17.568 66.029 17.504C66.173 17.44 66.301 17.352 66.413 17.24C66.525 17.128 66.621 17.016 66.701 16.904V13.112C66.381 13.304 66.085 13.504 65.813 13.712C65.541 13.904 65.309 14.12 65.117 14.36C64.925 14.6 64.773 14.864 64.661 15.152C64.565 15.424 64.517 15.736 64.517 16.088C64.517 16.552 64.613 16.92 64.805 17.192C64.997 17.464 65.261 17.6 65.597 17.6ZM72.8111 20V6.128H76.7231V8.432C77.1711 7.632 77.6191 7.024 78.0671 6.608C78.5151 6.176 79.0591 5.96 79.6991 5.96C79.8271 5.96 79.9391 5.968 80.0351 5.984C80.1311 5.984 80.2191 6 80.2991 6.032V9.92C80.1231 9.84 79.9231 9.776 79.6991 9.728C79.4911 9.664 79.2671 9.632 79.0271 9.632C78.5791 9.632 78.1631 9.752 77.7791 9.992C77.3951 10.232 77.0431 10.56 76.7231 10.976V20H72.8111ZM81.9746 20V6.128H85.8866V20H81.9746ZM81.9506 3.776V1.064H85.8866V3.776H81.9506ZM88.3261 20V6.128H92.2381V20H88.3261ZM88.3021 3.776V1.064H92.2381V3.776H88.3021ZM97.5097 20.24C96.8057 20.24 96.2137 20.072 95.7337 19.736C95.2537 19.4 94.8937 18.976 94.6537 18.464C94.4137 17.936 94.2937 17.4 94.2937 16.856C94.2937 15.992 94.4617 15.264 94.7977 14.672C95.1497 14.08 95.6057 13.584 96.1657 13.184C96.7257 12.784 97.3417 12.448 98.0137 12.176C98.6857 11.888 99.3497 11.632 100.006 11.408V10.016C100.006 9.776 99.9817 9.568 99.9337 9.392C99.8857 9.2 99.8057 9.056 99.6937 8.96C99.5817 8.848 99.4137 8.792 99.1897 8.792C98.9657 8.792 98.7897 8.84 98.6617 8.936C98.5497 9.032 98.4697 9.168 98.4217 9.344C98.3737 9.504 98.3417 9.688 98.3257 9.896L98.2297 10.904L94.5817 10.76C94.6617 9.096 95.1017 7.872 95.9017 7.088C96.7177 6.288 97.9337 5.888 99.5497 5.888C100.958 5.888 102.006 6.28 102.694 7.064C103.398 7.832 103.75 8.832 103.75 10.064V16.544C103.75 17.12 103.758 17.624 103.774 18.056C103.806 18.488 103.838 18.864 103.87 19.184C103.918 19.504 103.958 19.776 103.99 20H100.486C100.438 19.632 100.382 19.232 100.318 18.8C100.254 18.368 100.206 18.112 100.174 18.032C100.014 18.608 99.7097 19.12 99.2617 19.568C98.8297 20.016 98.2457 20.24 97.5097 20.24ZM98.9017 17.6C99.0617 17.6 99.2057 17.568 99.3337 17.504C99.4777 17.44 99.6057 17.352 99.7177 17.24C99.8297 17.128 99.9257 17.016 100.006 16.904V13.112C99.6857 13.304 99.3897 13.504 99.1177 13.712C98.8457 13.904 98.6137 14.12 98.4217 14.36C98.2297 14.6 98.0777 14.864 97.9657 15.152C97.8697 15.424 97.8217 15.736 97.8217 16.088C97.8217 16.552 97.9177 16.92 98.1097 17.192C98.3017 17.464 98.5657 17.6 98.9017 17.6Z" fill="white"/>
</svg>
